<?xml version="1.0" encoding="UTF-8" standalone="no"?>
<!DOCTYPE svg PUBLIC "-//W3C//DTD SVG 1.1//EN" "http://www.w3.org/Graphics/SVG/1.1/DTD/svg11.dtd">
<svg width="100%" height="100%" viewBox="0 0 432 432" version="1.1" xmlns="http://www.w3.org/2000/svg" xmlns:xlink="http://www.w3.org/1999/xlink" xml:space="preserve" xmlns:serif="http://www.serif.com/" style="fill-rule:evenodd;clip-rule:evenodd;stroke-linejoin:round;stroke-miterlimit:2;">
    <g transform="matrix(0.209709,0,0,0.209709,0,0)">
        <rect x="0" y="0" width="2060" height="2060" style="fill:rgb(0,109,119);"/>
    </g>
    <g transform="matrix(1,0,0,1,-1.09744,0)">
        <g transform="matrix(1,0,0,1,1.09744,0)">
            <path d="M282.903,346.951L155.903,346.951L155.903,348.951C155.903,357.782 163.072,364.951 171.903,364.951L299.903,364.951C308.733,364.951 315.903,357.782 315.903,348.951L315.903,268.152L348.326,246.372C349.849,245.38 350.44,243.584 349.903,242C349.709,241.045 349.137,240.157 348.229,239.556L331.788,228.022L331.729,228.073L331.687,228.108L331.675,228.118C331.642,228.144 331.609,228.171 331.575,228.196L331.565,228.204L331.556,228.21C331.523,228.236 331.488,228.261 331.454,228.285L331.448,228.29L331.437,228.297C331.4,228.323 331.363,228.348 331.326,228.372L275.31,266C273.448,267.213 270.895,266.768 269.613,265.009C269.058,264.248 268.831,263.365 268.903,262.509L268.903,240L205.047,240C201.656,240 198.903,237.397 198.903,234.191L198.903,215.809C198.903,212.603 201.656,210 205.047,210L268.903,210L268.903,186.173C268.903,184.036 270.738,182.301 272.999,182.301C273.156,182.301 273.312,182.309 273.464,182.326C274.422,182.223 275.421,182.437 276.272,183L315.903,210.804L315.903,158L315.833,158C316.181,155.061 315.228,151.997 312.976,149.745L298.09,134.859L298.132,134.959L298.151,135.005L298.186,135.089L298.211,135.154L298.216,135.166L298.22,135.176L298.237,135.219L298.272,135.313L298.276,135.324C298.314,135.427 298.351,135.529 298.385,135.632L298.423,135.748L298.433,135.78L298.436,135.79L298.443,135.81L298.465,135.881L298.479,135.929L298.485,135.948L298.49,135.967L298.505,136.015L298.524,136.082L298.53,136.106L298.534,136.119L298.543,136.149L298.569,136.248L298.575,136.269C298.601,136.371 298.626,136.472 298.65,136.575L298.652,136.584L298.658,136.611L298.676,136.69L298.683,136.725L298.687,136.744L298.693,136.772L298.704,136.827L298.714,136.878L298.719,136.905L298.723,136.927L298.731,136.963L298.743,137.035L298.749,137.066L298.751,137.079L298.755,137.1L298.774,137.213L298.777,137.23C298.785,137.281 298.793,137.333 298.8,137.384L298.801,137.39L298.805,137.418L298.818,137.511L298.821,137.536L298.823,137.552L298.827,137.587L298.835,137.649L298.839,137.688L298.842,137.715L298.845,137.744L298.85,137.787L298.855,137.844L298.859,137.878L298.86,137.898L298.863,137.925L298.87,138.006L298.873,138.041L298.873,138.05C298.877,138.101 298.881,138.152 298.884,138.203L298.891,138.34L298.892,138.355L298.892,138.367L298.894,138.404L298.897,138.478L298.898,138.508L298.898,138.531L298.899,138.565L298.901,138.617L298.901,138.662L298.902,138.694L298.902,138.72L298.902,138.755L298.902,138.82L298.902,138.858L298.902,138.874L298.902,138.894L298.901,138.991L298.9,139.021L298.9,139.026C298.899,139.077 298.898,139.128 298.896,139.178L298.896,139.185L298.894,139.217L298.89,139.309L298.889,139.331L298.888,139.348L298.886,139.386L298.883,139.448L298.88,139.484L298.878,139.511L298.876,139.542L298.873,139.586L298.869,139.639L298.866,139.674L298.864,139.696L298.861,139.724L298.854,139.8L298.851,139.837L298.848,139.862L298.833,140L298.903,140L298.903,188.13L269.899,167.834C269.451,167.522 268.971,167.292 268.475,167.143C268.431,167.13 268.387,167.117 268.342,167.105L268.234,167.077C267.834,166.978 267.427,166.93 267.022,166.932L266.911,166.933C266.874,166.934 266.838,166.936 266.801,166.937C266.692,166.942 266.583,166.951 266.475,166.963L266.471,166.964L266.331,166.95L266.189,166.94C266.141,166.938 266.094,166.936 266.046,166.934L265.903,166.931L265.774,166.933L265.645,166.938L265.559,166.943C265.456,166.95 265.354,166.96 265.253,166.974C265.104,166.993 264.957,167.019 264.813,167.051C264.703,167.075 264.594,167.104 264.487,167.136C264.414,167.157 264.342,167.18 264.271,167.204L264.184,167.235C264.146,167.25 264.108,167.264 264.07,167.279L263.957,167.325C263.546,167.499 263.163,167.726 262.816,167.998L262.723,168.074C261.611,168.991 260.903,170.379 260.903,171.931L260.903,200L196.403,200C195.923,200 195.454,200.045 195,200.132C194.677,200.193 194.362,200.275 194.055,200.376L194.045,200.379L193.91,200.425L193.884,200.435L193.757,200.481L193.725,200.493L193.602,200.542L193.57,200.555L193.447,200.606L193.425,200.616C193.241,200.695 193.062,200.782 192.887,200.875L192.857,200.891L192.754,200.948L192.708,200.973L192.612,201.029L192.561,201.059L192.47,201.115L192.417,201.148L192.328,201.204L192.275,201.239L192.187,201.298L192.138,201.332L192.049,201.394L192.031,201.408L191.919,201.489L191.837,201.551L191.788,201.589L191.714,201.649L191.655,201.696L191.585,201.754L191.525,201.805L191.457,201.864L191.397,201.917L191.331,201.977L191.271,202.033L191.208,202.093L191.146,202.153L191.087,202.211L191.021,202.279L190.969,202.332L190.858,202.452L190.811,202.504L190.744,202.579L190.695,202.637L190.634,202.709L190.584,202.77L190.526,202.842L190.478,202.904L190.421,202.978L190.375,203.04L190.318,203.118L190.274,203.178L190.215,203.263L190.177,203.318L190.101,203.435L190.082,203.463L189.994,203.604L189.963,203.656L189.907,203.751L189.872,203.812L189.822,203.901L189.788,203.965L189.741,204.054L189.708,204.119L189.663,204.209L189.631,204.274L189.587,204.369L189.559,204.431L189.511,204.54L189.489,204.589L189.424,204.748L189.412,204.779L189.363,204.91L189.342,204.969L189.304,205.075L189.282,205.14L189.25,205.241L189.228,205.31L189.199,205.409L189.179,205.479L189.151,205.581L189.133,205.649L189.107,205.759L189.092,205.82L189.062,205.957L189.054,205.993L189.021,206.167L189.013,206.215L188.992,206.342L188.982,206.408L188.967,206.519L188.958,206.591L188.945,206.698L188.938,206.772L188.928,206.88L188.923,206.953L188.916,207.064L188.912,207.135L188.907,207.257L188.905,207.317L188.903,207.5L188.903,242.5L188.905,242.683L188.907,242.743L188.912,242.865L188.916,242.936L188.923,243.047L188.928,243.12L188.938,243.228L188.945,243.302L188.958,243.409L188.967,243.481L188.982,243.592L188.992,243.658L189.013,243.785L189.021,243.833L189.054,244.007L189.062,244.043L189.092,244.18L189.107,244.241L189.133,244.351L189.151,244.419L189.179,244.521L189.199,244.591L189.228,244.69L189.25,244.759L189.282,244.86L189.304,244.925L189.342,245.031L189.363,245.09L189.412,245.221L189.424,245.252L189.489,245.411L189.511,245.46L189.559,245.569L189.587,245.631L189.631,245.726L189.663,245.791L189.708,245.881L189.741,245.946L189.788,246.035L189.822,246.099L189.872,246.188L189.907,246.249L189.963,246.344L189.994,246.396L190.084,246.54L190.101,246.565L190.177,246.682L190.215,246.737L190.274,246.822L190.318,246.882L190.375,246.96L190.421,247.022L190.478,247.096L190.526,247.158L190.584,247.23L190.634,247.291L190.695,247.363L190.744,247.421L190.811,247.496L190.858,247.548L190.969,247.668L191.021,247.721L191.087,247.789L191.146,247.847L191.208,247.907L191.271,247.967L191.331,248.023L191.397,248.083L191.457,248.136L191.525,248.195L191.585,248.246L191.655,248.304L191.714,248.351L191.788,248.411L191.837,248.449L191.919,248.511L192.031,248.592L192.049,248.606L192.138,248.668L192.187,248.702L192.275,248.761L192.328,248.796L192.417,248.852L192.47,248.885L192.561,248.941L192.612,248.971L192.708,249.027L192.754,249.052L192.857,249.109L192.887,249.125C193.062,249.218 193.241,249.305 193.425,249.384L193.447,249.394L193.57,249.445L193.602,249.458L193.725,249.507L193.757,249.519L193.884,249.565L193.91,249.575L194.045,249.621L194.055,249.624C194.362,249.725 194.677,249.807 195,249.868C195.454,249.955 195.923,250 196.403,250L260.903,250L260.903,277.749C260.815,278.854 261.092,279.994 261.769,280.977C263.335,283.249 266.451,283.823 268.724,282.257L298.903,261.461L298.903,330.951C298.903,332.642 298.64,334.271 298.153,335.802L298.123,335.895L298.061,336.081C297.229,338.54 295.814,340.731 293.981,342.491C293.753,342.71 293.518,342.923 293.276,343.129C292.821,343.518 292.343,343.881 291.846,344.217L291.685,344.324C291.556,344.409 291.427,344.492 291.296,344.573L291.197,344.634C291.141,344.667 291.086,344.7 291.031,344.733L290.864,344.83C290.808,344.862 290.752,344.894 290.696,344.926L290.526,345.019C290.328,345.127 290.126,345.231 289.923,345.331C289.836,345.373 289.749,345.415 289.661,345.456L289.485,345.537L289.307,345.616C289.085,345.713 288.86,345.806 288.633,345.893C288.557,345.922 288.479,345.951 288.402,345.98L288.217,346.046L288.032,346.11C287.908,346.152 287.783,346.193 287.658,346.232L287.47,346.289L287.431,346.3C287.318,346.334 287.205,346.366 287.09,346.397L286.899,346.447C286.603,346.523 286.304,346.591 286.002,346.651C285.694,346.711 285.383,346.763 285.068,346.806C284.891,346.83 284.715,346.851 284.537,346.869C284.471,346.876 284.403,346.882 284.336,346.888L284.133,346.905C283.727,346.936 283.317,346.951 282.903,346.951ZM244.402,139.975L248.903,139.975L248.903,140L255.903,140L255.903,120.956L274.947,140L275.947,140L238.903,102.956L238.903,135C238.903,137.591 240.878,139.724 243.403,139.975L243.903,140C244.071,140 244.238,139.992 244.402,139.975Z" style="fill:rgb(0,74,81);"/>
        </g>
        <path d="M300,261.461L269.821,282.257C267.549,283.823 264.433,283.249 262.867,280.977C262.19,279.994 261.913,278.854 262,277.749L262,250L197.5,250C193.361,250 190,246.639 190,242.5L190,207.5C190,203.361 193.361,200 197.5,200L262,200L262,171.931C262,169.172 264.24,166.931 267,166.931C267.192,166.931 267.382,166.942 267.568,166.964C268.737,166.831 269.957,167.108 270.996,167.834L300,188.13L300,140L299.93,140C300.278,137.061 299.326,133.997 297.073,131.745L248.257,82.929C246.004,80.676 242.939,79.723 240,80.072L240,80L156,80C147.169,80 140,87.169 140,96L140,330.951C140,339.782 147.169,346.951 156,346.951L284,346.951C292.831,346.951 300,339.782 300,330.951L300,261.461ZM250,139.975L250,140L277.044,140L240,102.956L240,135C240,137.591 241.975,139.724 244.5,139.975L245,140C245.169,140 245.335,139.992 245.5,139.975L250,139.975Z" style="fill:rgb(131,197,190);"/>
        <g transform="matrix(0.81923,0,0,0.774474,54.3464,50.716)">
            <path d="M263.24,205.667L185.293,205.667C181.154,205.667 177.793,209.028 177.793,213.167L177.793,236.903C177.793,241.043 181.154,244.403 185.293,244.403L263.24,244.403L263.24,273.467C263.152,274.572 263.429,275.712 264.106,276.695C265.672,278.967 268.788,279.54 271.061,277.975L339.437,229.39C341.296,228.108 342.018,225.789 341.362,223.744C341.125,222.511 340.428,221.365 339.319,220.589L272.235,170.805C271.197,170.078 269.977,169.802 268.808,169.934C268.622,169.913 268.432,169.902 268.24,169.902C265.48,169.902 263.24,172.143 263.24,174.902L263.24,205.667Z" style="fill:rgb(237,246,249);"/>
        </g>
    </g>
</svg>
